<svg width="152" height="511" viewBox="0 0 152 511" fill="none" xmlns="http://www.w3.org/2000/svg">
<path fill-rule="evenodd" clip-rule="evenodd" d="M49.0149 1.021C48.2294 2.293 49.2697 4.021 50.8228 4.021C51.4774 4.021 57.4129 9.084 64.013 15.271C70.6131 21.459 81.9664 31.834 89.2431 38.328C96.6027 44.895 102.672 51.109 102.921 52.328C103.167 53.534 103.635 56.186 103.96 58.22C104.342 60.599 105.664 62.919 107.666 64.72C113.973 70.395 115.758 72.661 118.931 79.021C125.938 93.072 134.315 120.291 132.359 122.651C131.755 123.377 127.322 126.908 122.504 130.496L113.747 137.021L103.368 136.999C90.9111 136.973 85.6592 135.112 82.3901 129.567C80.1145 125.709 79.5108 125.407 77.6979 127.221C75.4632 129.457 76.2348 120.172 78.5264 117.257C79.6418 115.839 81.035 112.767 81.6226 110.432C82.2103 108.096 83.7713 105.17 85.0916 103.929L87.4921 101.672V104.032C87.4921 105.33 86.5147 107.434 85.3194 108.707C84.1241 109.979 83.5864 111.021 84.1251 111.021C85.4194 111.021 91.6537 106.429 93.2387 104.31C94.8608 102.14 94.7798 96.176 93.0868 93.119C92.3553 91.798 91.9795 89.863 92.2523 88.819C92.5252 87.776 92.0534 85.257 91.2039 83.222C90.3554 81.186 89.38 78.846 89.0372 78.021C86.8235 72.697 80.2764 65.021 77.9488 65.021C77.0873 65.021 76.1978 63.765 75.859 62.072C75.0695 58.121 72.47 55.961 67.7438 55.326C62.7877 54.661 58.2075 56.923 56.5874 60.835C55.7119 62.95 54.2808 64.073 51.3365 64.956C48.877 65.693 47.097 66.906 46.7992 68.048C46.5284 69.082 45.2301 70.634 43.9139 71.497C42.5967 72.361 41.5193 73.626 41.5193 74.309C41.5193 74.992 40.5439 77.344 39.3506 79.536C36.0775 85.551 36.3954 95.787 40.0182 101.018C42.5067 104.611 42.6057 105.139 41.4084 108.453C40.342 111.403 40.352 112.236 41.4664 113.27C42.5647 114.291 42.7016 114.204 42.2079 112.799C41.4264 110.572 43.4212 104.822 44.8154 105.287C45.404 105.483 46.5893 107.714 47.4498 110.245C48.3103 112.776 49.8024 115.709 50.7639 116.762C51.9062 118.014 52.5128 120.297 52.5128 123.35C52.5128 127.803 51.3485 129.453 50.0973 126.771C49.6515 125.815 49.3817 125.803 48.9479 126.721C46.5254 131.854 43.8859 133.513 23.0053 143.032C14.988 146.687 14.3894 148.189 9.94001 175.843C8.05412 187.569 5.32973 201.969 3.88659 207.843C0.703471 220.801 -0.239971 240.052 1.5 256.521C2.13862 262.571 2.92816 271.069 3.25396 275.404C3.73668 281.839 4.17442 283.374 5.63555 283.756C7.88023 284.343 8.67676 287.878 8.41691 296.095C8.24201 301.629 8.62079 303.205 11.1503 307.446C12.9392 310.445 15.6206 313.23 18.0102 314.568C21.8799 316.736 21.9639 316.908 24.1276 327.143C25.3349 332.851 28.1672 344.853 30.4229 353.814C34.9072 371.631 35.1671 375.351 33.0244 391.021C32.2348 396.796 31.5742 403.876 31.5572 406.754C31.5092 414.598 42.3458 477.158 43.9759 478.447C46.1816 480.192 44.1328 491.047 40.2761 498.049C36.6372 504.655 36.922 506.359 42.111 509C46.6273 511.298 57.8127 510.912 61.2926 508.338C63.9681 506.359 64.1869 506.344 66.2397 508.008C71.6035 512.354 86.5957 510.906 89.457 505.767C90.8971 503.179 90.8252 502.695 88.2597 497.767C86.7586 494.881 85.0736 489.86 84.5159 486.608C83.9582 483.356 83.2786 480.472 83.0048 480.198C82.7319 479.924 83.3516 479.109 84.383 478.386C85.5443 477.572 86.5157 475.254 86.9355 472.297C87.3072 469.67 89.447 456.496 91.6896 443.021C96.2789 415.444 96.9605 401.474 94.6409 382.521L93.2937 371.521L97.809 354.021C100.293 344.396 103.539 330.221 105.023 322.521C106.508 314.821 108.342 307.306 109.1 305.821C110.117 303.829 110.479 298.513 110.479 285.562C110.479 264.996 108.672 255.412 100.912 234.817C96.6577 223.524 96.2839 221.807 96.3309 213.774C96.3779 205.828 99.5 196 100 194C101.221 186.522 103.5 178 104 177C104 177 105.138 172.5 105.138 166.55L110.479 161.304L115.725 157.817C129.623 148.58 151.715 127.724 151.687 123.866C151.654 119.227 144.845 103.9 132.431 80.521C127.749 71.705 126.795 69.157 127.624 67.688C128.431 66.261 128.196 65.36 126.565 63.623C125.413 62.396 124.47 60.337 124.47 59.048C124.47 56.584 116.144 48.021 113.749 48.021C113.049 48.021 112.477 47.571 112.477 47.021C112.477 46.471 111.515 46.021 110.339 46.021C109.162 46.021 107.597 45.234 106.86 44.271C105.697 42.754 105.391 42.718 104.548 44.003C103.727 45.258 103.148 45.092 100.781 42.926C87.681 30.928 74.6747 19.738 62.345 9.85699C57.5828 6.04199 53.4373 2.26699 53.1315 1.46999C52.4958 -0.188006 49.9343 -0.467004 49.0149 1.021ZM30.7927 201.521C33.9048 213.467 33.8479 217.674 30.4449 227.021C22.8833 247.79 21.5012 252.014 19.6463 260.021L17.6754 268.521L17.7574 247.521C17.8283 229.124 18.0682 226.089 19.6852 223.036C20.7006 221.119 21.5312 218.644 21.5302 217.536C21.5292 214.387 27.8664 193.948 28.587 194.779C28.9398 195.187 29.9332 198.221 30.7927 201.521ZM20.5168 310.893C20.5247 311.098 19.8801 310.725 19.0836 310.063C17.0968 308.413 15.2039 302.313 16.0324 300.23C16.5141 299.02 17.2657 300.273 18.6069 304.521C19.6493 307.821 20.5088 310.689 20.5168 310.893ZM64.3228 329.771L64.1399 341.521L63.5513 330.521C63.2275 324.471 63.1116 319.184 63.2934 318.771C64.2529 316.596 64.4887 319.112 64.3228 329.771ZM66.0818 377.271C66.9003 384.382 67.5429 413.084 67.8488 456.26C67.9677 473.003 68.3005 478.114 69.2959 478.496C70.2543 478.863 70.3193 479.494 69.5457 480.94C68.9721 482.012 68.5034 485.187 68.5034 487.995C68.5034 491.227 67.7238 494.629 66.3806 497.264L64.2579 501.427L62.331 497.669C61.2217 495.506 60.2682 491.283 60.0833 487.716C59.9074 484.309 59.6336 481.071 59.4767 480.521C59.3198 479.971 59.5537 478.686 59.9974 477.666C60.4401 476.646 60.5341 470.796 60.2063 464.666C59.8785 458.536 60.1013 446.321 60.701 437.521C61.3016 428.721 61.8613 411.396 61.9462 399.021C62.0912 377.81 62.7778 370.021 64.5017 370.021C64.9115 370.021 65.6221 373.283 66.0818 377.271Z" fill="black"/>
</svg>
