<svg width="163" height="447" viewBox="0 0 163 447" fill="none" xmlns="http://www.w3.org/2000/svg">
<path fill-rule="evenodd" clip-rule="evenodd" d="M83.9137 1.95693C83.0037 2.96293 82.2557 4.42493 82.2527 5.20693C82.2487 5.98793 80.9147 7.38493 79.2887 8.31093C75.5337 10.4469 74.6687 13.9179 75.9807 21.5749C76.5507 24.9039 76.6367 28.0409 76.1707 28.5449C75.2077 29.5889 76.1327 41.1069 77.3027 42.6279C77.7257 43.1779 78.3877 45.8779 78.7737 48.6279C79.1597 51.3779 80.1017 54.6249 80.8667 55.8429C82.8377 58.9789 82.5917 64.4349 80.3507 67.2829C79.3017 68.6169 74.2397 71.6539 69.1007 74.0309C63.9627 76.4089 56.1147 80.0489 51.6617 82.1219C37.2427 88.8309 32.3397 95.9029 32.2467 110.128C32.2167 114.803 31.7757 123.237 31.2677 128.869C30.7007 135.164 30.7037 142.259 31.2757 147.278C31.8417 152.241 31.8487 157.052 31.2937 159.537C28.8507 170.468 27.1877 192.75 28.1137 202.128C29.0497 211.611 28.9067 214.098 27.6307 210.521C27.2587 209.48 26.4067 207.953 25.7367 207.128C25.0667 206.303 19.4677 196.403 13.2947 185.128C7.12166 173.853 1.67066 164.208 1.18166 163.695C-2.90034 159.411 4.15166 175.327 13.7787 192.128C15.8267 195.703 18.3567 200.119 19.3997 201.942C20.4427 203.764 21.9647 206.275 22.7807 207.522C23.5977 208.768 23.9637 210.089 23.5957 210.458C23.2267 210.826 23.4067 211.128 23.9947 211.128C24.5817 211.128 25.5767 212.366 26.2047 213.878C26.8317 215.39 28.1697 218.203 29.1767 220.128C30.7497 223.132 30.8777 224.597 30.0807 230.463C29.2827 236.339 29.4437 238.164 31.2287 243.463C32.3697 246.854 34.0817 250.611 35.0317 251.812C37.0347 254.345 48.2127 263.128 49.4337 263.128C51.0577 263.128 50.1737 259.539 47.2377 254.214C45.5967 251.236 44.3867 248.666 44.5497 248.503C45.4427 247.611 49.3827 249.668 50.7347 251.732C52.5917 254.566 53.9587 254.799 54.5107 252.378C54.7307 251.416 55.2287 256.028 55.6187 262.628C56.5237 277.945 57.9567 289.354 60.3617 300.398C61.9477 307.678 62.1937 311.923 61.8107 325.398C61.5577 334.324 60.8887 344.553 60.3247 348.128C58.0697 362.421 59.8767 379.749 66.8917 411.099C68.9157 420.145 69.2457 423.264 68.4517 425.849C67.8987 427.653 67.6767 430.011 67.9587 431.09C68.2457 432.187 67.3227 435.109 65.8657 437.716C61.7047 445.161 61.6637 445.128 75.0587 445.128C82.3047 445.128 87.2827 444.704 87.9587 444.028C88.7577 443.229 88.5097 441.689 87.0477 438.385C85.2517 434.323 85.0517 431.869 85.1667 415.235C85.2377 405.001 85.9807 390.553 86.8177 383.128C88.0477 372.217 88.1557 365.889 87.3817 350.128C86.3847 329.836 86.6577 325.497 90.9957 292.628C92.1687 283.74 92.6837 273.284 92.6217 259.572L92.5307 239.517L95.8137 239.424L99.0977 239.331L98.5467 255.979C98.0037 272.378 98.3297 277.126 102.022 306.628C103.194 315.998 103.664 328.284 103.704 350.628C103.737 369.045 104.305 386.931 105.105 394.693C106.96 412.702 106.28 435.313 103.729 440.437C101.145 445.626 102.16 446.094 116.04 446.113C129.256 446.131 129.77 445.717 125.52 438.494C122.984 434.186 122.665 432.711 122.735 425.628C122.785 420.558 124.152 411.219 126.469 400.128C132.231 372.537 132.793 366.12 130.88 349.739C128.434 328.781 128.746 310.294 131.795 295.628C133.167 289.028 134.531 278.453 134.827 272.128C135.467 258.433 136.075 253.896 137.176 254.577C138.487 255.387 140.976 252.014 144.181 245.085L147.167 238.628L147.213 243.489C147.247 247.13 146.342 250.205 143.602 255.748C141.591 259.818 140.233 263.435 140.584 263.786C141.3 264.502 147.011 260.744 153.012 255.608C158.963 250.514 161.725 242.403 160.94 232.328C160.569 227.569 160.938 220.044 161.905 212.628C163.535 200.138 163.328 186.849 161.242 170.128C160.659 165.453 160.013 148.927 159.807 133.403C159.409 103.571 158.986 100.451 154.467 94.0999C150.444 88.4449 144.707 84.7809 129.39 78.0829C121.488 74.6269 113.763 70.7399 112.225 69.4459C108.287 66.1319 107.477 60.5809 110.192 55.5149C111.329 53.3929 112.259 50.1659 112.259 48.3429C112.259 46.5199 112.917 43.7559 113.722 42.1999C115.054 39.6249 115.397 34.4229 115.454 15.9329C115.469 11.1749 110.914 4.22693 106.24 1.87993C101.174 -0.66507 86.2397 -0.61307 83.9137 1.95693ZM58.6487 175.628C58.7167 188.306 58.3437 192.253 56.2437 201.128C54.0167 210.539 53.7707 213.624 53.8697 230.878C53.9307 241.466 53.8647 250.128 53.7227 250.128C53.5807 250.128 52.9357 247.093 52.2897 243.385C51.6437 239.676 49.4867 232.849 47.4957 228.215L43.8757 219.788L45.6307 207.561C46.5957 200.837 47.9807 193.079 48.7077 190.322C49.4347 187.565 50.3247 180.655 50.6837 174.968C51.3707 164.12 53.0857 151.31 54.0737 149.653C54.3927 149.117 55.5357 151.367 56.6117 154.653C58.1817 159.446 58.5847 163.597 58.6487 175.628ZM138.74 157.693C139.575 162.057 140.267 169.003 140.276 173.128C140.286 177.253 140.963 183.778 141.781 187.628C142.6 191.478 144.2 200.381 145.338 207.413L147.406 220.197L143.457 229.413C141.286 234.481 139.17 241.103 138.757 244.128C137.213 255.434 136.759 252.412 136.759 230.82C136.759 211.409 136.477 207.386 134.509 198.719C132.037 187.833 131.458 169.376 133.329 161.128C135.154 153.078 136.382 148.918 136.806 149.342C137.035 149.57 137.905 153.328 138.74 157.693Z" fill="black"/>
</svg>
