<svg width="157" height="456" viewBox="0 0 157 456" fill="none" xmlns="http://www.w3.org/2000/svg">
<path fill-rule="evenodd" clip-rule="evenodd" d="M88.888 1.10996C87.451 1.92196 85.735 3.89196 85.074 5.48696C84.201 7.59496 82.765 8.71996 79.823 9.60196C77.362 10.339 75.581 11.552 75.283 12.694C75.012 13.728 73.713 15.28 72.396 16.143C71.078 17.007 70 18.272 70 18.955C70 19.638 69.029 21.99 67.841 24.182C64.61 30.148 64.947 40.54 68.54 45.725C70.986 49.255 71.085 49.791 69.889 53.099C68.822 56.049 68.832 56.882 69.947 57.916C71.046 58.937 71.183 58.85 70.689 57.445C69.907 55.218 71.903 49.468 73.298 49.933C73.887 50.129 75.073 52.36 75.934 54.891C76.795 57.422 78.287 60.355 79.25 61.408C80.393 62.66 81 64.943 81 67.996C81 72.449 79.835 74.099 78.583 71.417C78.137 70.461 77.867 70.449 77.433 71.367C75.577 75.297 71.667 78.373 64.08 81.87C59.361 84.045 53.689 86.655 51.475 87.668C43.449 91.345 42.854 92.839 38.402 120.489C36.515 132.215 33.868 146.474 32.521 152.174C27.502 173.415 27.47 175.534 31.522 217.667C31.923 221.837 31.8 222.683 31.014 221.167C30.443 220.067 29.106 217.817 28.041 216.167C26.977 214.517 21.738 205.292 16.401 195.667C2.788 171.121 1.922 169.667 0.905 169.667C0.407 169.667 0 169.899 0 170.184C0 171.045 10.543 191.726 14.52 198.667C16.568 202.242 19.098 206.658 20.141 208.481C21.184 210.303 22.706 212.814 23.522 214.061C24.339 215.307 24.705 216.628 24.337 216.997C23.968 217.365 24.148 217.667 24.736 217.667C25.323 217.667 26.3 218.905 26.905 220.417C27.511 221.93 28.872 224.517 29.93 226.167C30.988 227.817 31.887 230.419 31.927 231.948C31.967 233.478 32.634 234.973 33.408 235.27C35.313 236.001 37.319 241.086 36.598 243.357C35.567 246.608 41.292 255.87 46.079 258.693L50.362 261.218L52.579 271.693C53.799 277.453 56.642 289.559 58.898 298.593C63.386 316.565 63.633 320.08 61.5 335.667C60.71 341.442 60.049 348.487 60.032 351.323C59.983 359.279 70.777 421.769 72.425 423.069C74.666 424.838 72.647 435.635 68.756 442.695C65.115 449.301 65.4 451.005 70.592 453.646C75.111 455.944 86.303 455.558 89.785 452.984C92.462 451.005 92.681 450.99 94.735 452.654C100.111 457.007 115.11 455.552 117.966 450.4C119.397 447.819 119.341 447.349 117.139 443.4C115.84 441.072 114.001 435.685 113.053 431.43C111.411 424.067 111.413 423.632 113.085 422.43C114.87 421.148 115.721 416.55 122.577 371.167C125.44 352.222 125.488 349.826 123.388 331.224L121.777 316.947L126.789 297.057C129.546 286.118 132.358 273.68 133.038 269.419L134.274 261.67L139.208 258.634C145.684 254.65 148.983 247.94 148.781 239.166C148.623 232.285 149.55 228.667 151.469 228.667C152.956 228.667 153.257 226.55 155.527 200.167C157.165 181.134 157.319 171.085 156.065 165.167C155.599 162.967 154.08 155.992 152.689 149.667C151.298 143.342 148.977 130.125 147.532 120.295C146.087 110.466 144.138 100.126 143.202 97.317C141.203 91.322 138.553 89.315 124 82.775C115.048 78.753 112.001 76.519 109.395 72.068C108.445 70.444 108.061 70.371 106.645 71.546C105.162 72.777 105 72.496 105 68.697C105 65.977 105.719 63.568 107.029 61.903C108.145 60.485 109.539 57.413 110.127 55.078C110.715 52.742 112.277 49.816 113.598 48.575L116 46.318V48.678C116 49.976 115.022 52.08 113.826 53.353C112.63 54.625 112.092 55.667 112.631 55.667C113.926 55.667 120.164 51.075 121.75 48.956C123.373 46.786 123.292 40.822 121.598 37.765C120.866 36.444 120.49 34.509 120.763 33.465C121.036 32.422 120.564 29.903 119.714 27.868C118.865 25.832 117.889 23.492 117.546 22.667C115.378 17.456 108.793 9.66696 106.555 9.66696C105.787 9.66696 104.873 8.36396 104.523 6.77096C104.173 5.17796 103.03 3.09996 101.984 2.15196C99.408 -0.179039 92.186 -0.754039 88.888 1.10996ZM59.267 146.167C62.381 158.113 62.324 162.32 58.919 171.667C51.353 192.436 49.97 196.66 48.114 204.667L46.142 213.167L46.191 192.167C46.225 177.188 46.597 170.589 47.488 169.152C48.175 168.044 49.053 165.569 49.438 163.652C50.995 155.903 56.384 138.658 57.021 139.387C57.396 139.816 58.407 142.867 59.267 146.167ZM131.239 145.424C136.055 164.098 137.232 168.243 137.977 169.165C138.877 170.279 140.559 214.478 139.669 213.638C139.361 213.347 137.973 208.305 136.586 202.434C135.199 196.562 131.978 186.225 129.428 179.463C125.171 168.17 124.797 166.453 124.844 158.42C124.891 150.474 127.338 138.654 128.933 138.674C129.245 138.678 130.283 141.715 131.239 145.424ZM140.698 247.417C139.775 252.014 138.111 255.667 136.941 255.667C136.332 255.667 136.075 255.105 136.371 254.417C136.666 253.73 137.472 251.255 138.162 248.917C139.541 244.238 141.578 243.033 140.698 247.417ZM92.849 274.417L92.698 286.167L91.963 275.167C91.283 264.995 91.394 262.667 92.559 262.667C92.802 262.667 92.932 267.955 92.849 274.417ZM94.577 321.917C95.396 329.028 96.039 357.73 96.345 400.906C96.464 417.649 96.797 422.76 97.793 423.142C98.752 423.509 98.817 424.14 98.043 425.586C97.469 426.658 97 429.833 97 432.641C97 435.873 96.22 439.275 94.876 441.91L92.752 446.073L90.824 442.315C89.714 440.152 88.76 435.929 88.575 432.362C88.399 428.955 88.125 425.717 87.968 425.167C87.811 424.617 88.045 423.332 88.489 422.312C88.932 421.292 89.026 415.442 88.698 409.312C88.37 403.182 88.593 390.967 89.193 382.167C89.794 373.367 90.354 356.042 90.439 343.667C90.584 322.456 91.271 314.667 92.996 314.667C93.406 314.667 94.117 317.929 94.577 321.917Z" fill="black"/>
</svg>
