<svg width="181" height="479" viewBox="0 0 181 479" fill="none" xmlns="http://www.w3.org/2000/svg">
<path fill-rule="evenodd" clip-rule="evenodd" d="M55.1911 0.845663C54.5111 1.52666 53.9541 2.42966 53.9541 2.85266C53.9541 3.27566 51.8531 6.86966 49.2841 10.8397C46.7161 14.8107 39.6031 27.0867 33.4791 38.1207C23.4451 56.1967 22.0511 58.2337 19.3981 58.6897C17.4471 59.0257 16.3511 59.8687 16.1491 61.1897C15.9821 62.2867 14.3231 64.3087 12.4631 65.6837C8.1341 68.8837 6.9541 71.5267 6.9541 78.0197C6.9541 81.2867 6.2011 84.7387 4.9541 87.1837C3.8541 89.3417 2.9381 92.2487 2.9181 93.6447C2.8991 95.0417 2.2311 98.8837 1.4341 102.184C-0.268901 109.235 -0.511902 128.413 1.0111 135.514C1.5961 138.243 3.0471 141.333 4.2611 142.437C6.5711 144.538 15.2081 148.021 22.2641 149.695C28.4561 151.165 55.2111 153.678 64.7041 153.681L72.9541 153.684V168.502C72.9541 179.845 73.3631 184.595 74.6961 188.752C77.1971 196.547 77.1181 220.184 74.5551 231.184C72.8581 238.469 72.7431 242.313 73.2671 274.184C73.8411 309.079 74.6551 318.646 78.4391 334.964C80.1461 342.323 79.9031 368.742 78.0201 380.684C76.2611 391.834 76.7931 402.517 79.9941 420.298C81.6651 429.585 83.9691 441.192 85.1141 446.09C86.7411 453.057 86.9701 455.724 86.1681 458.34C85.6031 460.179 85.3721 462.567 85.6541 463.646C85.9411 464.743 85.0181 467.665 83.5611 470.272C79.4001 477.717 79.3591 477.684 92.7541 477.684C100 477.684 104.978 477.26 105.654 476.584C106.453 475.785 106.205 474.245 104.743 470.941C102.947 466.879 102.747 464.425 102.862 447.791C102.933 437.557 103.676 423.109 104.513 415.684C105.743 404.773 105.851 398.445 105.077 382.684C104.08 362.392 104.353 358.053 108.691 325.184C109.864 316.296 110.379 305.84 110.317 292.128L110.226 272.073L113.509 271.98L116.793 271.887L116.242 288.535C115.699 304.934 116.025 309.682 119.717 339.184C120.889 348.554 121.359 360.84 121.399 383.184C121.432 401.601 122 419.487 122.8 427.249C124.655 445.258 123.975 467.869 121.424 472.993C118.84 478.182 119.855 478.65 133.735 478.669C146.951 478.687 147.465 478.273 143.215 471.05C140.679 466.742 140.36 465.267 140.43 458.184C140.48 453.114 141.847 443.775 144.164 432.684C149.926 405.093 150.488 398.676 148.575 382.295C146.134 361.382 146.443 342.856 149.477 328.184C150.842 321.584 152.203 311.459 152.503 305.684C153.219 291.869 153.904 286.535 154.885 287.141C156.182 287.943 158.682 284.546 161.876 277.641L164.862 271.184L164.908 276.045C164.942 279.686 164.037 282.761 161.297 288.304C159.286 292.374 157.928 295.991 158.279 296.342C158.995 297.058 164.706 293.3 170.707 288.164C176.658 283.07 179.42 274.959 178.635 264.884C178.264 260.125 178.633 252.6 179.6 245.184C181.23 232.694 181.023 219.405 178.937 202.684C178.354 198.009 177.708 181.483 177.502 165.959C177.104 136.127 176.681 133.007 172.162 126.656C168.139 121.001 162.402 117.337 147.085 110.639C139.183 107.183 131.458 103.296 129.92 102.002C125.982 98.6877 125.172 93.1367 127.887 88.0707C129.024 85.9487 129.954 82.7217 129.954 80.8987C129.954 79.0757 130.637 76.2647 131.471 74.6517C132.506 72.6487 132.928 69.2547 132.801 63.9507C132.698 59.6787 132.934 54.3837 133.325 52.1837C133.909 48.8947 133.539 47.2147 131.245 42.7347C127.066 34.5747 124.67 33.2517 113.321 32.8347C105.354 32.5427 103.518 32.7677 101.892 34.2397C100.826 35.2047 99.9511 36.7117 99.9481 37.5887C99.9441 38.4657 98.6101 39.9407 96.9841 40.8667C93.2291 43.0027 92.3641 46.4737 93.6761 54.1307C94.2461 57.4597 94.3321 60.5967 93.8661 61.1007C92.9031 62.1447 93.8281 73.6627 94.9981 75.1837C95.4211 75.7337 96.0831 78.4337 96.4691 81.1837C96.8551 83.9337 97.7971 87.1807 98.5621 88.3987C100.441 91.3887 100.319 96.7187 98.3041 99.5937C97.3971 100.89 91.9551 104.195 86.2121 106.938C77.8901 110.914 74.1711 112.105 67.9031 112.807C63.5771 113.291 56.9811 114.842 53.2461 116.254C43.6241 119.89 39.8971 120.684 31.1991 120.95L23.5411 121.184L22.3081 115.722C21.5741 112.472 21.1961 105.181 21.3741 97.7217C21.6431 86.4437 21.9291 84.7317 24.2171 80.6837C26.3421 76.9237 26.8451 74.4907 27.2691 65.8927C27.5491 60.2327 28.2101 55.0577 28.7391 54.3927C30.0941 52.6867 47.8371 19.8697 52.8511 9.79267C56.8771 1.70267 57.7771 -1.73934 55.1911 0.845663ZM156.435 190.249C157.27 194.613 157.962 201.559 157.971 205.684C157.981 209.809 158.658 216.334 159.476 220.184C160.295 224.034 161.895 232.937 163.033 239.969L165.101 252.753L161.152 261.969C158.981 267.037 156.865 273.659 156.452 276.684C154.914 287.947 154.454 285 154.454 263.874C154.454 244.875 154.162 240.819 152.099 231.184C150.074 221.727 149.812 218.29 150.228 206.684C150.544 197.886 151.328 191.174 152.479 187.413C153.45 184.239 154.396 181.793 154.581 181.977C154.766 182.162 155.6 185.884 156.435 190.249Z" fill="black"/>
</svg>
